<?xml version="1.0" encoding="UTF-8"?>
<svg width="10px" height="8px" viewBox="0 0 10 8" version="1.1" xmlns="http://www.w3.org/2000/svg" xmlns:xlink="http://www.w3.org/1999/xlink">
    <!-- Generator: Sketch 46 (44423) - http://www.bohemiancoding.com/sketch -->
    <title></title>
    <desc>Created with Sketch.</desc>
    <defs></defs>
    <g id="Symbols" stroke="none" stroke-width="1" fill="none" fill-rule="evenodd">
        <g id="checkmarks/purple" transform="translate(-7.000000, -8.000000)" fill="#FFFFFF">
            <g id="checkmark" transform="translate(4.000000, 4.000000)">
                <path d="M12.8510167,6.04575183 C12.8510167,5.89229183 12.7896327,5.73883182 12.6791415,5.62834062 L11.8443191,4.79351819 C11.7338279,4.68302699 11.5803679,4.62164299 11.4269079,4.62164299 C11.2734478,4.62164299 11.1199878,4.68302699 11.0094966,4.79351819 L6.98270612,8.82644711 L5.17801647,7.01561906 C5.06752527,6.90512786 4.91406527,6.84374385 4.76060526,6.84374385 C4.60714526,6.84374385 4.45368525,6.90512786 4.34319405,7.01561906 L3.50837163,7.85044148 C3.39788042,7.96093269 3.33649642,8.11439269 3.33649642,8.26785269 C3.33649642,8.4213127 3.39788042,8.5747727 3.50837163,8.68526391 L6.56529491,11.7421872 C6.67578612,11.8526784 6.82924612,11.9140624 6.98270612,11.9140624 C7.13616613,11.9140624 7.28962613,11.8526784 7.40011734,11.7421872 L12.6791415,6.46316304 C12.7896327,6.35267184 12.8510167,6.19921183 12.8510167,6.04575183 Z" id=""></path>
            </g>
        </g>
    </g>
</svg>