<?xml version="1.0" encoding="UTF-8"?>
<svg width="10px" height="10px" viewBox="0 0 10 10" version="1.1" xmlns="http://www.w3.org/2000/svg" xmlns:xlink="http://www.w3.org/1999/xlink">
    <!-- Generator: Sketch 46 (44423) - http://www.bohemiancoding.com/sketch -->
    <title>Icon</title>
    <desc>Created with Sketch.</desc>
    <defs></defs>
    <g id="Symbols" stroke="none" stroke-width="1" fill="none" fill-rule="evenodd">
        <g id="checkmarks/red-plus" transform="translate(-7.000000, -7.000000)" fill="#FFFFFF">
            <g id="checkmark" transform="translate(4.000000, 4.000000)">
                <path d="M9,7 L9,4 C9,3.448 8.553,3 8,3 C7.447,3 7,3.448 7,4 L7,7 L4,7 C3.447,7 3,7.448 3,8 C3,8.552 3.447,9 4,9 L7,9 L7,12 C7,12.552 7.447,13 8,13 C8.553,13 9,12.552 9,12 L9,9 L12,9 C12.553,9 13,8.552 13,8 C13,7.448 12.553,7 12,7 L9,7 Z" id="Icon"></path>
            </g>
        </g>
    </g>
</svg>