<svg width="14" height="15" xmlns="http://www.w3.org/2000/svg"><g fill="none" fill-rule="evenodd"><circle fill="#FFF" cx="7" cy="8" r="6"/><path d="M13.781 7.75a6.573 6.573 0 0 1-.916 3.39 6.852 6.852 0 0 1-2.474 2.475c-1.04.61-2.17.916-3.391.916a6.573 6.573 0 0 1-3.39-.916 6.852 6.852 0 0 1-2.475-2.474A6.573 6.573 0 0 1 .219 7.75c0-1.221.305-2.352.916-3.39a6.852 6.852 0 0 1 2.474-2.475A6.573 6.573 0 0 1 7 .969c1.221 0 2.352.305 3.39.916a6.852 6.852 0 0 1 2.475 2.474c.61 1.04.916 2.17.916 3.391zM7 9.117a1.21 1.21 0 0 0-.889.37c-.246.245-.369.542-.369.888s.123.643.37.889c.245.246.542.369.888.369s.643-.123.889-.37c.246-.245.369-.542.369-.888s-.123-.643-.37-.889A1.211 1.211 0 0 0 7 9.117zM5.797 4.605l.219 3.72c0 .072.032.14.095.204a.316.316 0 0 0 .233.096h1.312a.316.316 0 0 0 .233-.096.287.287 0 0 0 .095-.205l.22-3.719a.351.351 0 0 0-.097-.26.316.316 0 0 0-.232-.095h-1.75a.316.316 0 0 0-.232.096.351.351 0 0 0-.096.26z" fill="#EA1821"/></g></svg>