<?xml version="1.0" encoding="UTF-8"?>
<svg width="36px" height="36px" viewBox="0 0 36 36" version="1.1" xmlns="http://www.w3.org/2000/svg" xmlns:xlink="http://www.w3.org/1999/xlink">
    <!-- Generator: Sketch 49.3 (51167) - http://www.bohemiancoding.com/sketch -->
    <title>Shape</title>
    <desc>Created with Sketch.</desc>
    <defs></defs>
    <g id="Scan-v2" stroke="none" stroke-width="1" fill="none" fill-rule="evenodd">
        <g id="IOLO-DF-Scan-v2-•-Results" transform="translate(-99.000000, -2044.000000)" fill="#FFFFFF" fill-rule="nonzero">
            <g id="Group-3" transform="translate(85.000000, 1587.000000)">
                <g id="Featurettes" transform="translate(0.000000, 243.000000)">
                    <path d="M32,214 C22.0739759,214 14,222.073976 14,232 C14,241.926024 22.0739759,250 32,250 C41.9260241,250 50,241.926024 50,232 C50,222.073976 41.9260241,214 32,214 Z M48.6944578,232.216867 L41.5551807,232.216867 C41.5551807,232.127952 41.5595181,232.039036 41.5595181,231.947952 C41.5595181,228.859759 41.1387952,225.981928 40.3971084,223.487952 C42.1277108,222.991325 43.6913253,222.338554 45.0163855,221.551325 C47.3195181,224.413976 48.7031325,228.046506 48.7031325,232 C48.6987952,232.071566 48.6944578,232.145301 48.6944578,232.216867 Z M44.9448193,242.533253 C43.6154217,241.759036 42.0518072,241.119277 40.3255422,240.629157 C40.9804819,238.508193 41.3968675,236.100964 41.5183133,233.515904 L48.6272289,233.515904 C48.3192771,236.918554 46.9898795,240.026265 44.9448193,242.533253 Z M15.3727711,233.518072 L22.3775904,233.518072 C22.4968675,236.085783 22.9110843,238.477831 23.5573494,240.587952 C21.8484337,241.058554 20.2956627,241.676627 18.9662651,242.424819 C16.973253,239.935181 15.6763855,236.868675 15.3727711,233.518072 Z M23.6809639,233.518072 L31.3493976,233.518072 L31.3493976,239.525301 C29.0722892,239.56 26.8624096,239.815904 24.8260241,240.271325 C24.2057831,238.260964 23.8024096,235.968675 23.6809639,233.518072 Z M23.639759,231.947952 C23.639759,229.000723 24.0474699,226.237831 24.7587952,223.854458 C26.8103614,224.322892 29.0440964,224.585301 31.3493976,224.62 L31.3493976,232.216867 L23.6440964,232.216867 C23.6440964,232.127952 23.639759,232.039036 23.639759,231.947952 Z M40.2561446,231.947952 C40.2561446,232.039036 40.2539759,232.125783 40.2518072,232.216867 L32.6506024,232.216867 L32.6506024,224.615663 C34.9233735,224.563614 37.1159036,224.290361 39.1262651,223.819759 C39.8440964,226.209639 40.2561446,228.985542 40.2561446,231.947952 Z M32.6506024,223.314458 L32.6506024,215.828193 C35.1489157,216.238072 37.3371084,218.81012 38.7163855,222.581446 C36.8361446,223.010843 34.7824096,223.264578 32.6506024,223.314458 Z M31.3493976,223.318795 C29.1828916,223.284096 27.0901205,223.043373 25.1686747,222.616145 C26.5653012,218.775422 28.7990361,216.168675 31.3493976,215.813012 L31.3493976,223.318795 Z M31.3493976,240.826506 L31.3493976,248.08506 C28.8489157,247.735904 26.6520482,245.226747 25.2510843,241.509639 C27.153012,241.093253 29.2175904,240.859036 31.3493976,240.826506 Z M32.6506024,240.828675 C34.7498795,240.878554 36.773253,241.123614 38.6339759,241.54 C37.2503614,245.187711 35.1012048,247.664337 32.6506024,248.065542 L32.6506024,240.828675 Z M32.6506024,239.52747 L32.6506024,233.518072 L40.2171084,233.518072 C40.0956627,235.983855 39.6879518,238.289157 39.0612048,240.306024 C37.0638554,239.846265 34.8951807,239.579518 32.6506024,239.52747 Z M44.1424096,220.553735 C42.9431325,221.241205 41.5378313,221.811566 39.9872289,222.253976 C38.920241,219.293735 37.3696386,216.988434 35.5240964,215.678554 C38.8833735,216.402892 41.8674699,218.14 44.1424096,220.553735 Z M28.3219277,215.715422 C26.4893976,217.038313 24.9518072,219.345783 23.893494,222.299518 C22.3580723,221.872289 20.9592771,221.319277 19.76,220.655663 C22.013253,218.226747 24.9778313,216.47012 28.3219277,215.715422 Z M18.8990361,221.664096 C20.2219277,222.425301 21.7746988,223.054217 23.4879518,223.533494 C22.7527711,226.016627 22.3385542,228.879277 22.3385542,231.947952 C22.3385542,232.039036 22.3407229,232.125783 22.3428916,232.216867 L15.3055422,232.216867 C15.3055422,232.145301 15.2990361,232.073735 15.2990361,232 C15.3012048,228.098554 16.6501205,224.509398 18.8990361,221.664096 Z M19.8380723,243.426747 C21.0438554,242.776145 22.4404819,242.238313 23.9715663,241.819759 C25.0689157,244.784337 26.6563855,247.072289 28.5409639,248.336627 C25.146988,247.618795 22.1325301,245.864337 19.8380723,243.426747 Z M35.3115663,248.366988 C37.2048193,247.115663 38.8031325,244.827711 39.9091566,241.860964 C41.4554217,242.29253 42.8607229,242.852048 44.066506,243.526506 C41.7503614,245.948916 38.7185542,247.679518 35.3115663,248.366988 Z" id="Shape"></path>
                </g>
            </g>
        </g>
    </g>
</svg>