<?xml version="1.0" encoding="UTF-8"?>
<svg width="35px" height="40px" viewBox="0 0 35 40" version="1.1" xmlns="http://www.w3.org/2000/svg" xmlns:xlink="http://www.w3.org/1999/xlink">
    <!-- Generator: Sketch 49.3 (51167) - http://www.bohemiancoding.com/sketch -->
    <title>fingerprint</title>
    <desc>Created with Sketch.</desc>
    <defs></defs>
    <g id="Scan-v2" stroke="none" stroke-width="1" fill="none" fill-rule="evenodd">
        <g id="IOLO-DF-Scan-v2-•-Results" transform="translate(-100.000000, -1842.000000)" fill="#FFFFFF">
            <g id="Group-3" transform="translate(85.000000, 1587.000000)">
                <g id="Featurettes" transform="translate(0.000000, 243.000000)">
                    <g id="fingerprint" transform="translate(15.000000, 12.000000)">
                        <path d="M3.09412745,33 C2.52932641,33 2.03819507,32.6137649 1.90313395,32.0531012 C0.331513656,25.7362891 2.84217094e-14,20.117192 2.84217094e-14,16.5040253 C2.84217094e-14,16.1800862 0.0122782835,15.9059839 0.0245565671,15.6443408 C0.0613914177,14.9590851 0.626192461,14.4108805 1.31377634,14.4607173 C1.98908193,14.4980949 2.50476984,15.083677 2.46793499,15.7689328 C2.45565671,16.0679535 2.45565671,16.292219 2.45565671,16.5040253 C2.45565671,19.9676816 2.77489208,25.3625132 4.28512096,31.4426006 C4.44473864,32.1153971 4.05183357,32.7881937 3.38880626,32.9626224 C3.29057999,32.9875408 3.19235372,33 3.09412745,33 Z M33.777558,29.2871598 C33.2495918,29.2871598 32.7830171,28.9495156 32.6111211,28.4386886 C32.1568246,27.0806363 31.0886139,23.9035415 30.5606477,20.4274259 C30.5115346,20.1034869 30.5864321,19.7795478 30.7816568,19.5054455 C30.9781094,19.2313432 31.2617377,19.0569144 31.5797453,19.0070777 C32.2427726,18.9074041 32.8824712,19.3808535 32.9917479,20.0536501 C33.4214878,22.9441834 34.2551833,25.6229104 34.9317167,27.6300868 C35.1527258,28.277965 34.8199843,28.9881391 34.1827414,29.2124046 C34.0464524,29.2622414 33.9126191,29.2871598 33.777558,29.2871598 Z M31.4692407,17.762404 C30.7939351,17.762404 30.2414124,17.2017403 30.2414124,16.5164845 C30.2414124,15.8312288 30.7939351,15.270565 31.4692407,15.270565 C32.1445463,15.270565 32.6970691,15.8312288 32.6970691,16.5164845 L32.6970691,16.5164845 L32.6970691,16.5164845 L32.6970691,16.5164845 C32.6970691,17.2017403 32.1445463,17.762404 31.4692407,17.762404 L31.4692407,17.762404 Z M31.0272225,14.062023 C30.4624215,14.062023 29.972518,13.675788 29.836229,13.1275834 C29.3819325,11.2587041 28.5592875,9.5393351 27.4051289,8.00685406 C27.196398,7.74521096 27.1116779,7.42127188 27.160791,7.08487361 C27.196398,6.76093453 27.3695218,6.46191384 27.6273658,6.26256671 C28.155332,5.85141326 28.9534204,5.96354602 29.3586038,6.49929142 C30.709215,8.29341556 31.6791994,10.3242644 32.2194438,12.5170828 C32.3790615,13.1898793 31.9861565,13.8626759 31.3231291,14.0246454 C31.223675,14.0495638 31.1254488,14.062023 31.0272225,14.062023 Z M1.89085567,13.2895529 C1.76807283,13.2895529 1.64528999,13.2646345 1.52250716,13.2272569 C0.884036415,13.0279098 0.515687909,12.3301949 0.712140445,11.6698575 C1.36288947,9.51441671 2.43110014,7.54586383 3.89221588,5.81403568 C4.30967752,5.30320867 5.12004424,5.24091269 5.62345386,5.67698453 C6.13914177,6.11305637 6.20053319,6.91044487 5.75851498,7.43373108 C4.51840834,8.90391613 3.60981536,10.5734483 3.0572926,12.40495 C2.89767492,12.9282362 2.43110014,13.2895529 1.89085567,13.2895529 Z M25.808952,5.82649487 C25.5277793,5.82649487 25.2564292,5.7392805 25.0476984,5.56485177 C22.5552069,3.53400292 19.5470274,2.46251212 16.3546737,2.46251212 C14.5743226,2.46251212 12.8430846,2.79891039 11.2100729,3.45924775 C11.2100729,3.45924775 11.2100729,3.45924775 11.1977946,3.45924775 C10.5838804,3.72089085 9.8471834,3.39695177 9.60161773,2.76153281 C9.47883489,2.46251212 9.49111318,2.11365465 9.61389601,1.81463396 C9.74895713,1.50315407 9.98224452,1.26642936 10.2892016,1.14183741 C15.6548115,-1.02606259 22.0640755,-0.054245348 26.5824839,3.60875809 C27.0981718,4.04482993 27.1841198,4.82975924 26.7666581,5.36550464 C26.5321429,5.66452533 26.1760727,5.82649487 25.808952,5.82649487 Z M7.52658781,5.34058625 C7.13368274,5.34058625 6.76533423,5.15369832 6.53204684,4.81730005 C6.13914177,4.26909545 6.26192461,3.48416614 6.81444737,3.08547189 C7.34241356,2.69923683 8.14050199,2.83628798 8.52112878,3.37203338 C8.71758132,3.63367649 8.79125102,3.97007476 8.74213788,4.29401384 C8.68074646,4.63041212 8.50885049,4.91697361 8.23872826,5.10386154 C8.02999744,5.26583108 7.78443177,5.34058625 7.52658781,5.34058625 Z" id="Shape"></path>
                        <path d="M9.75804592,38 C9.26775547,38 8.80346528,37.7073721 8.60908245,37.222552 C7.68297827,34.918727 6.92649478,32.4648681 6.35944169,29.9304126 C6.20963072,29.2620801 6.62934906,28.5999474 7.29668883,28.4499136 C7.95907618,28.2961599 8.62641595,28.7189825 8.77498881,29.3885549 C9.31356544,31.7915759 10.0316676,34.11648 10.9070094,36.2975502 C11.1620595,36.9336439 10.8550089,37.6552942 10.2198599,37.9107237 C10.0675727,37.9714812 9.91157121,38 9.75804592,38 Z M30.7625343,34.0172841 C30.3378636,34.0172841 29.9230977,33.7978132 29.6940478,33.4047494 C28.5995611,31.5386263 27.6870761,29.4145938 26.9801169,27.0934095 L26.9788788,27.0921695 C25.4510545,22.0765762 25.3321962,17.6288795 25.3321962,16.3839708 C25.3321962,16.1892989 25.3260057,15.9971068 25.3123865,15.8049147 C25.2678146,15.1217029 25.7841053,14.5314872 26.4663024,14.4856091 C27.1423089,14.4198918 27.7378385,14.9567897 27.7836484,15.6400015 C27.7997438,15.8855114 27.8084106,16.1335012 27.8084106,16.3839708 C27.8084106,17.5408432 27.9198402,21.6797926 29.3461397,26.3655595 C29.3473778,26.3667994 29.3473778,26.3680394 29.3473778,26.3692793 C29.9986222,28.5057113 30.8343446,30.4499512 31.8297827,32.1499211 C32.1752146,32.7413767 31.9783556,33.5002254 31.3890166,33.8461712 C31.1896813,33.9627264 30.9742507,34.0172841 30.7625343,34.0172841 Z M6.88439914,27.2422034 C6.28144094,27.2422034 5.75400728,26.8020215 5.66238734,26.1857669 C5.07552454,22.2613286 5,18.8861877 5,16.3852108 C5,15.8197941 5.04209564,15.2518975 5.12504883,14.6976403 L5.12504883,14.6951604 C5.95334253,9.16746825 10.8017703,5 16.4029672,5 C16.5602068,5 16.7186845,5.00371985 16.874686,5.00991959 C17.5581212,5.03595852 18.0905073,5.61253476 18.0632689,6.29698655 C18.0372687,6.98019839 17.4813585,7.55677463 16.7781137,7.48733749 C16.6555411,7.4823777 16.5292541,7.4798978 16.4029672,7.4798978 C12.0163534,7.4798978 8.2215549,10.7397235 7.57402484,15.0634253 C7.57402484,15.0634253 7.57402484,15.0634253 7.57402484,15.0646652 C7.50964327,15.4974074 7.47621437,15.942549 7.47621437,16.3852108 C7.47621437,18.8006312 7.54802459,22.0567371 8.11012525,25.818742 C8.21165004,26.4969941 7.74612174,27.1281281 7.06887711,27.2298039 C7.00697175,27.2384835 6.94506639,27.2422034 6.88439914,27.2422034 Z M25.6380087,13.3808146 C25.1700042,13.3808146 24.7242856,13.1154655 24.5138074,12.6628842 C23.5877032,10.6640866 21.9620685,9.08191178 19.9390013,8.2077478 C19.311281,7.93619899 19.022802,7.20586909 19.2939475,6.57845495 C19.5650929,5.95104081 20.2881475,5.65841287 20.9208203,5.93120162 C23.5035119,7.04715563 25.5773414,9.06703239 26.7609719,11.6200872 C27.0482128,12.2413016 26.7795435,12.9778312 26.1592518,13.2667393 C25.9896311,13.3436161 25.8125818,13.3808146 25.6380087,13.3808146 Z" id="Shape"></path>
                        <path d="M16.2792032,40 C15.7860749,40 15.3202736,39.70375 15.1252581,39.21375 C14.8780729,38.5925 15.1575536,37.875 15.7662007,37.6 C16.3748477,37.32375 17.0841079,37.57375 17.3822207,38.1725 C17.3971264,38.2025 17.4194848,38.2525 17.4331483,38.28625 C17.6877864,38.9275 17.3784943,39.655 16.7412781,39.91125 C16.5897374,39.9725 16.4332282,40 16.2792032,40 Z M26.7578695,37.5375 C26.3392694,37.5375 25.9306064,37.325 25.6970847,36.93875 C22.1905324,31.1675 20.9297635,24.55125 20.4912892,21.12 C20.4043396,20.43625 20.8838044,19.80875 21.5644954,19.72125 C22.2638185,19.6325 22.867497,20.1175 22.9556887,20.80125 C23.3680781,24.0325 24.5493502,30.25875 27.8174122,35.635 C28.1751477,36.22375 27.9913114,36.99375 27.4050228,37.35375 C27.2013124,37.47875 26.9777277,37.5375 26.7578695,37.5375 Z M14.8656515,36.505 C14.3576175,36.505 13.880637,36.18875 13.6980429,35.68125 C12.3316923,31.88375 10.9777632,27.0675 10.612575,24.7175 C10.349242,23.00875 10.1629214,21.265 10.0585819,19.53375 C10.0163493,18.845 10.5380468,18.2525 11.2237063,18.21 C11.9056394,18.17375 12.4968965,18.6925 12.5391292,19.3825 C12.6385001,21.03625 12.8173678,22.7025 13.0695216,24.3325 C13.4061407,26.51125 14.7377114,31.22 16.0357444,34.8275 C16.2692661,35.4775 15.9351313,36.19375 15.2904623,36.42875 C15.1488587,36.4825 15.0072551,36.505 14.8656515,36.505 Z M21.4117126,18.4725 C20.7446851,18.4725 20.1944185,17.94 20.17206,17.26375 C20.1633651,17.02625 20.1596387,16.8 20.1596387,16.58625 C20.1472173,14.4125 18.5001439,12.49875 16.6344543,12.49875 C14.470652,12.49875 12.7204812,13.91625 12.4745381,15.86875 C12.3888306,16.55375 11.7727308,17.045 11.0858291,16.95125 C10.4051381,16.86375 9.92318903,16.23875 10.0101386,15.55375 C10.4163174,12.33625 13.2011881,10 16.6344543,10 C19.8702208,10 22.622796,13.01375 22.6439123,16.58 C22.6439123,16.775 22.6476387,16.9725 22.6538494,17.1825 C22.67745,17.8725 22.1396048,18.45 21.4539452,18.4725 C21.4390396,18.4725 21.4266182,18.4725 21.4117126,18.4725 Z" id="Shape"></path>
                        <path d="M21.7459515,39 C21.293709,39 20.866591,38.7506494 20.6404697,38.3641558 L19.6982977,36.705974 C18.8189372,35.0216104 18.0513811,33.2275325 17.4232664,31.3574026 C17.3102058,31.0457143 17.3353303,30.7078442 17.4860779,30.4086234 C17.6368254,30.1106494 17.8880712,29.884987 18.2021286,29.7852468 C18.8553678,29.5608312 19.5839809,29.9223896 19.7975398,30.5582338 C20.4005299,32.3161558 21.1178369,34.0005195 21.9331297,35.558961 L22.8388711,37.1423377 C23.178053,37.7407792 22.964494,38.5012987 22.3602477,38.8379221 C22.1730695,38.9501299 21.9595105,39 21.7459515,39 Z M17.5627078,28.6145455 C16.9848424,28.6145455 16.4823506,28.2268052 16.3441654,27.6532987 C16.2687916,27.3291429 16.3190408,27.004987 16.4949129,26.7182338 C16.670785,26.4327273 16.9471555,26.232 17.2737751,26.1584416 C17.9395767,25.9951169 18.6305028,26.4202597 18.7925564,27.0797922 C18.9558662,27.7405714 18.5300044,28.4262857 17.8629467,28.5758961 C17.7637045,28.6020779 17.6632062,28.6145455 17.5627078,28.6145455 Z M16.8340948,24.9478442 C16.2185425,24.9478442 15.6909261,24.5002597 15.5904278,23.8881039 C15.2009967,21.3584416 15,18.7776623 15,16.2467532 L15,16.2342857 C15.0125623,15.5485714 15.5778655,15 16.2562293,15 C16.9471555,15 17.5124587,15.561039 17.5124587,16.2467532 C17.5124587,18.6280519 17.7134554,21.1464935 18.0777619,23.5016104 C18.1908225,24.1885714 17.7134554,24.8244156 17.0350915,24.9353766 C16.9722801,24.9366234 16.8969063,24.9478442 16.8340948,24.9478442 Z" id="Shape"></path>
                    </g>
                </g>
            </g>
        </g>
    </g>
</svg>