<?xml version="1.0" encoding="UTF-8"?>
<svg width="105px" height="33px" viewBox="0 0 105 33" version="1.1" xmlns="http://www.w3.org/2000/svg" xmlns:xlink="http://www.w3.org/1999/xlink">
    <!-- Generator: Sketch 49.3 (51167) - http://www.bohemiancoding.com/sketch -->
    <title>to logo</title>
    <desc>Created with Sketch.</desc>
    <defs></defs>
    <g id="Scan-v2" stroke="none" stroke-width="1" fill="none" fill-rule="evenodd">
        <g id="IOLO-DF-Scan-v2-•-Results" transform="translate(-1155.000000, -14.000000)">
            <g id="Header" transform="translate(20.000000, 13.000000)">
                <g id="TrackOFF-logo" transform="translate(1135.000000, 1.000000)">
                    <g>
                        <path d="M30.5961573,8.47774583 C29.0883482,5.85012083 27.2060922,3.9562875 24.5947581,2.43943333 C21.9831963,0.92235 19.411949,0.229120833 16.3963308,0.229120833 C13.3809403,0.229120833 10.8096931,0.92235 8.19813124,2.43943333 C5.58679718,3.9562875 3.70454121,5.85012083 2.1967321,8.47774583 C0.688922993,11.1053708 -6.8329718e-05,13.6924333 -6.8329718e-05,16.7263708 C-6.8329718e-05,19.7605375 0.688922993,22.3476 2.1967321,24.9749958 L4.11611388,23.8601 C2.90440022,21.7597875 2.2060705,19.3242042 2.20424837,16.7263708 C2.20424837,16.7227042 2.20379284,16.7188083 2.20379284,16.7151417 C2.20379284,14.1200583 2.89893384,11.6865375 4.10631996,9.58714167 C6.56254555,5.31662083 11.1499751,2.43507917 16.3963308,2.43507917 C21.6429143,2.43507917 26.2303438,5.31662083 28.6865694,9.58714167 C29.8939555,11.6865375 30.5890965,14.1200583 30.5890965,16.7151417 C30.5890965,16.7188083 30.588641,16.7227042 30.588641,16.7263708 C30.5865911,19.3242042 29.8884892,21.7597875 28.6767755,23.8601 L30.5961573,24.9749958 C32.1039664,22.3476 32.7929577,19.7605375 32.7929577,16.7263708 C32.7929577,13.6924333 32.1039664,11.1053708 30.5961573,8.47774583" id="Fill-1" fill="#EA1821"></path>
                        <polygon id="Fill-4" fill="#EA1821" points="14.82641 24.3145833 17.9663883 24.3145833 17.9663883 13.8659583 14.82641 13.8659583"></polygon>
                        <polygon id="Fill-6" fill="#EA1821" points="8.26078959 10.6079417 9.139282 13.3538167 14.346462 13.3538167 14.8263644 13.3538167 17.9663427 13.3538167 18.7027093 13.3538167 23.6534252 13.3538167 24.5321453 10.6079417"></polygon>
                        <path d="M80.5570705,17.8560937 C80.5570705,19.0887812 80.7896193,20.0166771 81.2544892,20.6404687 C81.719359,21.2640312 82.4142722,21.5759271 83.3392289,21.5759271 C85.1941529,21.5759271 86.121615,20.3361354 86.121615,17.8560937 C86.121615,15.3710104 85.1991638,14.1286979 83.3542614,14.1286979 C82.4293048,14.1286979 81.7318861,14.4417396 81.2620054,15.0680521 C80.7921247,15.6943646 80.5570705,16.6236354 80.5570705,17.8560937 M88.558936,17.8560937 C88.558936,19.6820937 88.1088709,21.0855104 87.2089685,22.0665729 C86.3090662,23.0474062 85.0192289,23.5378229 83.3392289,23.5378229 C81.6594566,23.5378229 80.3696193,23.0474062 79.4697169,22.0665729 C78.5698145,21.0855104 78.1197495,19.6770521 78.1197495,17.8409687 C78.1197495,16.0048854 78.5709534,14.6028438 79.4733612,13.6343854 C80.375769,12.6661563 81.6694783,12.1819271 83.3542614,12.1819271 C85.0390445,12.1819271 86.327743,12.6698229 87.2201291,13.6456146 C88.1125152,14.6216354 88.558936,16.0250521 88.558936,17.8560937" id="Fill-7" fill="#EA1821"></path>
                        <polygon id="Fill-8" fill="#EA1821" points="92.8113677 23.3869167 90.5241443 23.3869167 90.5241443 12.3555208 96.8084284 12.3555208 96.8084284 14.2720417 92.8113677 14.2720417 92.8113677 17.1166875 96.5310098 17.1166875 96.5310098 19.0256458 92.8113677 19.0256458"></polygon>
                        <polygon id="Fill-9" fill="#EA1821" points="100.933334 23.3869167 98.6461106 23.3869167 98.6461106 12.3555208 104.930395 12.3555208 104.930395 14.2720417 100.933334 14.2720417 100.933334 17.1166875 104.652976 17.1166875 104.652976 19.0256458 100.933334 19.0256458"></polygon>
                        <polygon id="Fill-10" fill="#FFFFFF" points="43.8528286 12.6593729 40.7046508 12.6593729 40.7046508 10.9603313 54.6553015 10.9603313 53.5096399 12.6593729 45.8694664 12.6593729 45.8694664 23.1836229 43.8528286 23.1836229"></polygon>
                        <path d="M49.0335651,14.9736125 L51.0121659,14.9626125 L51.0076106,16.2012583 C51.0076106,16.2012583 51.0192267,14.9681125 53.0342701,14.9681125 C53.2310597,14.9681125 53.3456258,14.9846125 53.5096171,15.0176125 L53.5096171,16.9311542 C53.3456258,16.8981542 53.1654631,16.8651542 52.9194761,16.8651542 C51.9519273,16.8651542 51.0504306,17.9122167 51.0504306,19.026425 L51.0504306,23.1837375 L49.0335651,23.1837375 L49.0335651,14.9736125 Z" id="Fill-11" fill="#FFFFFF"></path>
                        <path d="M58.5428069,19.2573333 C57.1163102,19.2243333 55.75541,19.5376042 55.75541,20.7586042 C55.75541,21.550375 56.2637831,21.913375 56.9031215,21.913375 C57.706679,21.913375 58.29682,21.3856042 58.4772104,20.8081042 C58.5264078,20.659375 58.5428069,20.4946042 58.5428069,20.3626042 L58.5428069,19.2573333 Z M58.8051931,23.1836458 L58.674,22.292875 L58.6248026,22.292875 C58.1328286,22.9196458 57.2967007,23.3651458 56.2637831,23.3651458 C54.6568959,23.3651458 53.7551714,22.193875 53.7551714,20.972875 C53.7551714,18.9438333 55.5422213,17.9210625 58.4936095,17.9375625 L58.4936095,17.8055625 C58.4936095,17.2777917 58.2804208,16.4032917 56.8703232,16.4032917 C56.0833926,16.4032917 55.263436,16.6507917 54.7224924,16.9970625 L54.3289132,15.6775208 C54.919282,15.3145208 55.9521996,14.9680208 57.214705,14.9680208 C59.7725141,14.9680208 60.5102473,16.6012917 60.5102473,18.3500625 L60.5102473,21.2536042 C60.5102473,21.979375 60.5430456,22.688875 60.6250412,23.1836458 L58.8051931,23.1836458 Z" id="Fill-12" fill="#FFFFFF"></path>
                        <path d="M68.1010868,22.9362375 C67.6747093,23.1342375 66.8388091,23.3485083 65.838462,23.3485083 C63.3462495,23.3485083 61.7229631,21.7484667 61.7229631,19.257425 C61.7229631,16.8488833 63.3626486,14.9681125 66.1662169,14.9681125 C66.9044056,14.9681125 67.6583102,15.1328833 68.1174859,15.3476125 L67.7569328,16.8651542 C67.4289501,16.7168833 66.9533753,16.5518833 66.2318134,16.5518833 C64.6905228,16.5518833 63.7723991,17.6901542 63.789026,19.158425 C63.789026,20.8079667 64.8547419,21.7484667 66.2318134,21.7484667 C66.9369761,21.7484667 67.4289501,21.5999667 67.8225293,21.4349667 L68.1010868,22.9362375 Z" id="Fill-13" fill="#FFFFFF"></path>
                        <polygon id="Fill-14" fill="#FFFFFF" points="71.1991334 18.2248687 73.9537321 14.9681812 76.3805759 14.9681812 73.2813677 18.4324937 76.6591334 23.1835771 74.18332 23.1835771 72.008385 19.8668479 71.1991334 20.7353896 71.1991334 23.1835771 69.1824957 23.1835771 69.1824957 14.9681812 71.1991334 14.9681812"></polygon>
                        <polygon id="Fill-15" fill="#EA1821" points="76.4012115 10.9603083 76.4012115 12.65935 54.3974479 12.65935 55.5431095 10.9603083"></polygon>
                        <path d="M16.3963991,31.3382438 C11.8497397,31.3382438 7.56637744,29.1609313 4.83432755,25.5570563 L3.53925163,26.4251396 C4.82521692,28.1913271 6.3658243,29.5525771 8.3687961,30.7160563 C10.9455098,32.2127438 13.4213232,32.8803063 16.3963991,32.8803063 C19.3714751,32.8803063 21.8472885,32.2127438 24.4240022,30.7160563 C26.4267462,29.5525771 27.9678091,28.1910979 29.2535466,26.4249104 L27.9586985,25.5570563 C25.2264208,29.1609313 20.9430586,31.3382438 16.3963991,31.3382438" id="Fill-16" fill="#FFFFFF"></path>
                    </g>
                </g>
            </g>
        </g>
    </g>
</svg>